<svg width="69" height="56" viewBox="0 0 69 56" fill="none" xmlns="http://www.w3.org/2000/svg">
<path d="M68.8617 6.58333C66.3271 7.73542 63.595 8.4925 60.7642 8.85458C63.6608 7.11 65.8992 4.345 66.9525 1.02042C64.2204 2.66625 61.1921 3.81833 57.9992 4.47667C55.3987 1.64583 51.745 0 47.5975 0C39.8621 0 33.5421 6.32 33.5421 14.1212C33.5421 15.2404 33.6738 16.3267 33.9042 17.3471C22.1858 16.7546 11.7513 11.1258 4.80583 2.60042C3.58792 4.67417 2.89667 7.11 2.89667 9.6775C2.89667 14.5821 5.36542 18.9271 9.18375 21.3958C6.84667 21.3958 4.67417 20.7375 2.765 19.75V19.8487C2.765 26.6954 7.63667 32.4229 14.0883 33.7067C12.017 34.2735 9.8424 34.3524 7.73542 33.9371C8.62946 36.7432 10.3804 39.1985 12.7421 40.958C15.1038 42.7174 17.9575 43.6926 20.9021 43.7463C15.9107 47.6977 9.72357 49.8336 3.3575 49.8029C2.23833 49.8029 1.11917 49.7371 0 49.6054C6.25417 53.6212 13.6933 55.9583 21.6592 55.9583C47.5975 55.9583 61.8504 34.4308 61.8504 15.7671C61.8504 15.1417 61.8504 14.5492 61.8175 13.9237C64.5825 11.9487 66.9525 9.44708 68.8617 6.58333Z" fill="white"/>
</svg>
